<svg xmlns="http://www.w3.org/2000/svg" viewBox="0 0 256 256" role="img" aria-label="AI Provider for Mistral">
  <title>AI Provider for Mistral (monochrome)</title>
  <!-- Single-color variant for favicons, docs, dark/light UI. Recolor via `fill`. -->
  <g fill="#0C0D11" fill-rule="evenodd">
    <!-- Connector pins -->
    <rect x="38" y="100" width="20" height="12" rx="3"/>
    <rect x="38" y="144" width="20" height="12" rx="3"/>
    <rect x="198" y="100" width="20" height="12" rx="3"/>
    <rect x="198" y="144" width="20" height="12" rx="3"/>
    <rect x="100" y="38" width="12" height="20" rx="3"/>
    <rect x="144" y="38" width="12" height="20" rx="3"/>
    <rect x="100" y="198" width="12" height="20" rx="3"/>
    <rect x="144" y="198" width="12" height="20" rx="3"/>
    <!-- Hexagonal chip outline -->
    <path d="M206 128 167 195.5 89 195.5 50 128 89 60.5 167 60.5z M167 73.5 89 73.5 64 117 64 139 89 182.5 167 182.5 192 139 192 117z"/>
    <!-- Mistral mark core -->
    <g transform="translate(80,80) scale(4)">
      <path d="M3.428 3.4h3.429v3.428h3.429v3.429h-.002 3.431V6.828h3.427V3.4h3.43v13.714H24v3.429H13.714v-3.428h-3.428v-3.429h-3.43v3.428h3.43v3.429H0v-3.429h3.428V3.4zm10.286 13.715h3.428v-3.429h-3.427v3.429z"/>
    </g>
    <!-- Live-connection node (AI sparkle) -->
    <polygon points="167,24 174,41 191,48 174,55 167,72 160,55 143,48 160,41"/>
  </g>
</svg>
